HIERARCHY
ROOT Hips
{
	OFFSET	0.00	0.00	0.00
	CHANNELS 6 Xposition Yposition Zposition Zrotation Xrotation Yrotation
	JOINT Spine
	{
		OFFSET	 0.00	0.01	 0.00
		CHANNELS 3 Zrotation Xrotation Yrotation
		JOINT Spine1
		{
			OFFSET	 0.00	 2.45913012437421	 0.00
			CHANNELS 3 Zrotation Xrotation Yrotation
            JOINT Neck
            {
                OFFSET	 0.00	 2.48462964506057	 0.00
                CHANNELS 3 Zrotation Xrotation Yrotation
                JOINT Head
                {
                    OFFSET	 0.00	 0.927524780924562	 0.00
                    CHANNELS 3 Zrotation Xrotation Yrotation
                    End Site 
                    {
                        OFFSET	 0.00	 1.14999962169752	 0.00
                    }
                }
            }
			JOINT LeftShoulder
			{
				OFFSET	 0.00	 2.48462964506057	 0.00
				CHANNELS 3 Zrotation Xrotation Yrotation
				JOINT LeftUpArm
				{
					OFFSET	 0.00	 1.24881979654096	 0.00
					CHANNELS 3 Zrotation Xrotation Yrotation
					JOINT LeftForeArm
					{
						OFFSET	 0.00	2.59758046908119	 0.00
						CHANNELS 3 Zrotation Xrotation Yrotation
						JOINT LeftHand
						{
							OFFSET	 0.00	2.45542024364365	 0.00
							CHANNELS 3 Zrotation Xrotation Yrotation
							JOINT LeftHandThumb 
							{
								OFFSET	 0.00	0.00	 0.00
								CHANNELS 3 Zrotation Xrotation Yrotation
								End Site
								{
									OFFSET	 0.00	0.00	1.00000003353624
								}
							}
							JOINT L_Wrist_End 
							{
								OFFSET	 0.00	0.99999967115358	 0.00
								CHANNELS 3 Zrotation Xrotation Yrotation
								End Site 
								{
									OFFSET	 0.00	 0.00	 0.00
								}
							}
						}
					}
				}
			}
			JOINT RightShoulder
			{
				OFFSET	 0.00	 2.48462964506057	 0.00
				CHANNELS 3 Zrotation Xrotation Yrotation
				JOINT RightUpArm
				{
					OFFSET	 0.00	 1.24881979654096	 0.00
					CHANNELS 3 Zrotation Xrotation Yrotation
					JOINT RightForeArm
					{
						OFFSET	 0.00	2.59758046908119	 0.00
						CHANNELS 3 Zrotation Xrotation Yrotation
						JOINT RightHand
						{
							OFFSET	 0.00	2.45542024364365	 0.00
							CHANNELS 3 Zrotation Xrotation Yrotation
							JOINT RightHandThumb 
							{
								OFFSET	 0.00	0.00	 0.00
								CHANNELS 3 Zrotation Xrotation Yrotation
								End Site
								{
									OFFSET	 0.00	0.00	1.00000003353624
								}
							}
							JOINT R_Wrist_End 
							{
								OFFSET	 0.00	0.99999967115358	 0.00
								CHANNELS 3 Zrotation Xrotation Yrotation
								End Site 
								{
									OFFSET	 0.00	 0.00	 0.00
								}
							}
						}
					}
				}
			}
		}
	}
	JOINT LeftUpLeg
	{
		OFFSET	 1.2719394002717	 0.00	 0.00
		CHANNELS 3 Zrotation Xrotation Yrotation
		JOINT LeftLowLeg
		{
			OFFSET	 0.00	-4.3429100912261	 0.00
			CHANNELS 3 Zrotation Xrotation Yrotation
			JOINT LeftFoot
			{
				OFFSET	 0.00	-4.48767017425826	 0.00
				CHANNELS 3 Zrotation Xrotation Yrotation
				JOINT LeftToeBase
                {
                    OFFSET	 0.00	0.00	 1.51507020887566
                    CHANNELS 3 Zrotation Xrotation Yrotation
                    End Site 
                    {
                        OFFSET	 0.00	0.00	 0.75000010571191
                    }
                }
			}
		}
	}
	JOINT RightUpLeg
	{
		OFFSET	 -1.2719393604653	 0.00	 0.00
		CHANNELS 3 Zrotation Xrotation Yrotation
		JOINT RightLowLeg
		{
			OFFSET	 0.00	-4.3429100912261	 0.00
			CHANNELS 3 Zrotation Xrotation Yrotation
			JOINT RightFoot
			{
				OFFSET	 0.00	-4.48767017425826	 0.00
				CHANNELS 3 Zrotation Xrotation Yrotation
				JOINT RightToeBase
                {
                    OFFSET	 0.00	0.00	 1.51507020887566
                    CHANNELS 3 Zrotation Xrotation Yrotation
                    End Site 
                    {
                        OFFSET	 0.00	0.00	 0.749999965609858
                    }
                }   
			}
		}
	}
}
MOTION 
Frames:	13 
Frame Time: 0.02 
 1.4425999450683593 8.3143798828125 9.37239990234375 -141.208 83.673 857.908 3.03901 -7.54566 0.588305 4.56653 -8.02989 0.866464 -7.81576 70.1158 719.426 72.0425 -82.0574 58.3703 -115.7787 -12.0202 -11.7161 17.9013 15.0034 -23.4137 0.0 6.95331 0.0 18.3963 -14.8912 38.4268 0.0 0.0 0.0 0.0 0.0 0.0 111.2712 -6.43618 6.07709 -14.2322 2.04185 54.5718 0.0 15.1746 0.0 -27.8504 -20.6747 -60.644 0.0 0.0 0.0 0.0 0.0 0.0 2.47729 -2.67164 3.82676 0.0 8.96281 0.0 -13.7695 -0.87769985 8.87369 0.0 -29.7546 0.0 6.46444 -3.70634 0.592306 0.0 11.3457 0.0 16.7213 4.4598 -12.6133 0.0 -36.979 0.0 
  1.4452499389648437 8.316890258789062 9.37333984375 -141.717 83.596 858.492 3.02087 -7.52365 0.566848 4.60041 -8.01934 0.846703 -8.06581 70.1246 719.706 72.1065 -82.091 58.4474 -115.8187 -11.9574 -11.7655 17.8424 14.9763 -23.4454 0.0 6.57832 0.0 18.3851 -14.8499 38.3306 0.0 0.0 0.0 0.0 0.0 0.0 111.234604 -6.44367 6.09048 -14.1728 1.98767 54.7008 0.0 15.2107 0.0 -27.7944 -20.6191 -60.7752 0.0 0.0 0.0 0.0 0.0 0.0 2.47361 -2.76301 3.84227 0.0 8.89366 0.0 -13.7583 -0.79800034 8.78863 0.0 -29.7941 0.0 6.46183 -3.663 0.594364 0.0 11.0536 0.0 16.7378 4.5263004 -12.7182 0.0 -36.9491 0.0 
  1.4480299377441406 8.320570068359375 9.374190063476563 -142.279 83.5048 859.13 3.02141 -7.46283 0.534848 4.58843 -8.05994 0.815855 -8.02299 70.0723 719.653 72.1367 -82.0944 58.573 -115.829 -11.9561 -11.7719 17.7749 14.9302 -23.5148 0.0 6.38894 0.0 18.3084 -14.9518 38.3907 0.0 0.0 0.0 0.0 0.0 0.0 111.2174 -6.5052 6.18412 -14.1096 2.03182 54.6199 0.0 15.2889 0.0 -27.7837 -20.8194 -60.7155 0.0 0.0 0.0 0.0 0.0 0.0 2.47201 -2.88419 3.85278 0.0 8.83945 0.0 -13.732 -0.7208004 8.72529 0.0 -29.8 0.0 6.46084 -3.68043 0.599476 0.0 10.841 0.0 16.7607 4.5731 -12.8072 0.0 -36.8824 0.0 
  1.4510600280761718 8.325070190429688 9.374609985351562 -143.001 83.4015 859.921 3.02499 -7.38783 0.513271 4.55526 -8.17989 0.79981 -8.06563 70.047 719.71 71.5399 -82.0697 58.0638 -115.7987 -11.9172 -11.7486 17.6816 14.8282 -23.3408 0.0 6.33533 0.0 18.3537 -15.2569 38.7555 0.0 0.0 0.0 0.0 0.0 0.0 111.2135 -6.50176 6.25511 -14.0996 1.96115 54.4052 0.0 15.309 0.0 -27.6551 -20.9272 -60.5351 0.0 0.0 0.0 0.0 0.0 0.0 2.46092 -3.02446 3.85429 0.0 8.77386 0.0 -13.7133 -0.65460014 8.67112 0.0 -29.8294 0.0 6.45943 -3.7569 0.707835 0.0 10.6854 0.0 16.7937 4.5778 -12.9734 0.0 -36.8684 0.0 
  1.455019989013672 8.329819946289062 9.375059814453126 -143.739 83.3018 860.673 3.04624 -7.30099 0.523682 4.49596 -8.28387 0.812929 -8.16667 70.0303 719.857 71.544 -82.0425 58.1404 -115.7624 -11.9155 -11.7478 17.5867 14.7718 -23.2167 0.0 6.26967 0.0 18.3184 -15.3438 38.7689 0.0 0.0 0.0 0.0 0.0 0.0 111.1945 -6.57795 6.25337 -14.0914 1.85382 53.5674 0.0 15.3485 0.0 -27.4174 -21.2449 -59.6981 0.0 0.0 0.0 0.0 0.0 0.0 2.43646 -3.12255 3.857 0.0 8.64294 0.0 -13.6798 -0.5792999 8.66823 0.0 -29.829 0.0 6.44779 -3.83009 0.846409 0.0 10.5177 0.0 16.8068 4.5933 -13.1304 0.0 -36.810898 0.0 
  1.4590699768066406 8.334400024414062 9.3756298828125 -144.332 83.1935 861.268 3.05398 -7.21387 0.520055 4.48573 -8.39919 0.813849 -8.38035 70.0066 720.146 71.2955 -82.0059 57.9378 -115.747604 -11.9777 -11.7092 17.5045 14.7565 -23.3098 0.0 6.19622 0.0 18.4327 -15.3257 38.7334 0.0 0.0 0.0 0.0 0.0 0.0 111.175 -6.51857 6.14233 -14.0757 1.698 53.5702 0.0 15.3759 0.0 -27.3497 -21.214 -59.5287 0.0 0.0 0.0 0.0 0.0 0.0 2.4304 -3.1902 3.85041 0.0 8.46939 0.0 -13.6886 -0.50759983 8.6454 0.0 -29.8493 0.0 6.43668 -3.89886 0.873373 0.0 10.3475 0.0 16.832 4.6649 -13.1557 0.0 -36.8354 0.0 
  1.4622900390625 8.3385498046875 9.376380004882812 -144.814 83.114 861.708 3.02094 -7.11319 0.527397 4.51734 -8.49434 0.832015 -8.69621 70.001 720.557 71.2311 -81.9783 57.9039 -115.7677 -12.0146 -11.7442 17.4844 14.7242 -23.3493 0.0 6.1376 0.0 18.2981 -15.3183 38.4982 0.0 0.0 0.0 0.0 0.0 0.0 111.1807 -6.51734 6.1824 -14.103 1.73269 53.6005 0.0 15.2772 0.0 -27.3787 -21.057 -59.4947 0.0 0.0 0.0 0.0 0.0 0.0 2.43254 -3.25153 4.12223 0.0 8.3599 0.0 -13.6435 -0.39430046 8.44791 0.0 -29.940601 0.0 6.41485 -3.99436 0.775537 0.0 10.2857 0.0 16.7864 4.755 -13.0547 0.0 -36.853203 0.0 
  1.466300048828125 8.343079833984374 9.37677001953125 -145.428 83.0276 862.251 3.00199 -7.02787 0.561202 4.53406 -8.57822 0.874523 -9.06839 69.964 721.03 71.0281 -81.9611 57.7299 -115.7314 -12.0081 -11.8519 17.3718 14.6655 -23.2825 0.0 6.1686 0.0 18.2228 -15.3538 38.2862 0.0 0.0 0.0 0.0 0.0 0.0 111.1538 -6.57787 6.22284 -14.1064 1.8034 53.4152 0.0 15.1752 0.0 -27.3783 -21.0074 -59.4457 0.0 0.0 0.0 0.0 0.0 0.0 2.40179 -3.28936 4.09181 0.0 8.18295 0.0 -13.6265 -0.3291998 8.52072 0.0 -29.9856 0.0 6.38094 -4.11878 0.723992 0.0 10.2438 0.0 16.7509 4.8297005 -12.9572 0.0 -36.8694 0.0 
  1.4705299377441405 8.347960205078126 9.377020263671875 -146.006 82.9236 862.729 3.01085 -6.96281 0.609043 4.52286 -8.64839 0.926131 -9.31449 69.9174 721.362 70.7602 -81.9231 57.5285 -115.7073 -12.0162 -11.7771 17.3514 14.6055 -23.3358 0.0 6.17582 0.0 18.2286 -15.3748 38.3165 0.0 0.0 0.0 0.0 0.0 0.0 111.138596 -6.56763 6.13613 -14.0752 1.76375 53.6121 0.0 15.2495 0.0 -27.4157 -21.1967 -59.7958 0.0 0.0 0.0 0.0 0.0 0.0 2.38838 -3.36214 4.14495 0.0 8.0556 0.0 -13.5989 -0.28779984 8.55029 0.0 -30.028801 0.0 6.37451 -4.25316 0.83764 0.0 10.192 0.0 16.7619 4.8721 -13.0023 0.0 -37.197098 0.0 
  1.4743899536132812 8.352479858398437 9.3772802734375 -146.393 82.8736 863.045 2.96084 -6.84919 0.623124 4.55493 -8.70729 0.952222 -9.57147 69.8654 721.706 70.6935 -81.8928 57.5984 -115.7119 -12.0562 -11.7085 17.3766 14.5923 -23.2564 0.0 6.13568 0.0 18.2504 -15.3599 38.3344 0.0 0.0 0.0 0.0 0.0 0.0 111.0927 -6.53817 6.21347 -14.0059 1.77465 53.5334 0.0 15.2729 0.0 -27.4751 -21.2389 -59.7149 0.0 0.0 0.0 0.0 0.0 0.0 2.35746 -3.41037 4.12473 0.0 7.98708 0.0 -13.5847 -0.2737999 8.61479 0.0 -29.989101 0.0 6.35093 -4.33592 0.861884 0.0 10.1598 0.0 16.6901 4.9216995 -12.985 0.0 -36.845398 0.0 
  1.4784500122070312 8.35677978515625 9.377349853515625 -146.643 82.8389 863.227 2.91966 -6.71778 0.661412 4.58711 -8.75767 1.00104 -9.81435 69.7908 722.031 70.5679 -81.8696 57.5272 -115.6838 -12.0468 -11.6827 17.3575 14.5785 -23.1079 0.0 6.11006 0.0 18.2287 -15.327 38.4721 0.0 0.0 0.0 0.0 0.0 0.0 111.0465 -6.5599 6.1784 -13.9606 1.75014 53.5126 0.0 15.2428 0.0 -27.4875 -21.1458 -59.5043 0.0 0.0 0.0 0.0 0.0 0.0 2.32489 -3.46515 4.08318 0.0 7.97289 0.0 -13.556 -0.2866001 8.71607 0.0 -30.0186 0.0 6.33341 -4.37616 0.917902 0.0 10.0892 0.0 16.6302 4.9601 -13.0181 0.0 -36.8578 0.0 
  1.4825900268554688 8.360449829101562 9.377459716796874 -146.77 82.8275 863.328 2.91034 -6.60857 0.660639 4.53644 -8.74987 1.00233 -10.2899 69.6986 722.645 70.2458 -81.8468 57.1968 -115.6281 -12.0467 -11.6796 17.3414 14.5366 -23.0699 0.0 6.20506 0.0 18.1781 -15.5282 38.3916 0.0 0.0 0.0 0.0 0.0 0.0 111.058395 -6.51048 6.06601 -13.9174 1.67382 53.8141 0.0 15.3132 0.0 -27.3051 -21.1656 -59.6052 0.0 0.0 0.0 0.0 0.0 0.0 2.29422 -3.5268 4.0523 0.0 8.01679 0.0 -13.5142 -0.28649998 8.76482 0.0 -30.0984 0.0 6.30651 -4.35994 0.873781 0.0 9.97739 0.0 16.5349 5.01091 -13.0147 0.0 -36.7983 0.0 
  1.486719970703125 8.3631298828125 9.377769775390625 -146.79 82.8377 863.333 2.87094 -6.51301 0.660325 4.52569 -8.70496 1.00651 -10.5693 69.6407 723.002 70.1876 -81.8426 57.1411 -115.6298 -12.0429 -11.6652 17.3892 14.555 -23.1449 0.0 6.1793 0.0 18.0787 -15.4952 38.0915 0.0 0.0 0.0 0.0 0.0 0.0 111.032196 -6.5639 6.15215 -13.8398 1.73814 53.4451 0.0 15.3706 0.0 -27.2366 -21.3418 -59.23 0.0 0.0 0.0 0.0 0.0 0.0 2.25292 -3.56789 3.939 0.0 8.0794 0.0 -13.443 -0.30630016 8.8898 0.0 -30.0711 0.0 6.27878 -4.26637 0.938954 0.0 9.77869 0.0 16.5366 5.05787 -13.0808 0.0 -36.8373 0.0 
